<?xml version="1.0" standalone="no"?>
<!DOCTYPE svg PUBLIC "-//W3C//DTD SVG 20010904//EN"
 "http://www.w3.org/TR/2001/REC-SVG-20010904/DTD/svg10.dtd">
<svg version="1.0" xmlns="http://www.w3.org/2000/svg"
 width="77.000000pt" height="77.000000pt" viewBox="0 0 77.000000 77.000000"
 preserveAspectRatio="xMidYMid meet">
<metadata>
Created by potrace 1.11, written by Peter Selinger 2001-2013
</metadata>
<g transform="translate(0.000000,77.000000) scale(0.100000,-0.100000)"
fill="#000000" stroke="none">
<path d="M278 720 c-88 -33 -134 -72 -189 -160 -46 -73 -54 -198 -19 -292 28
-75 96 -150 168 -185 50 -24 68 -28 147 -28 107 1 158 20 231 87 129 118 144
327 34 467 -88 112 -247 159 -372 111z m222 -140 c0 -8 -13 -67 -30 -130 -32
-126 -49 -250 -33 -250 9 0 58 59 173 208 22 28 45 52 51 52 13 0 11 -2 -90
-144 -75 -104 -121 -156 -140 -156 -51 1 -61 154 -20 288 20 64 2 54 -56 -29
-104 -150 -122 -169 -159 -169 -46 0 -60 20 -53 78 10 84 45 161 101 218 l52
54 102 -2 c86 -2 102 -4 102 -18z"/>
<path d="M322 552 c-33 -31 -66 -96 -93 -184 -28 -94 -9 -80 100 70 65 91 80
117 70 128 -18 22 -44 17 -77 -14z"/>
</g>
</svg>
